<?xml version="1.0" standalone="no"?>
<!DOCTYPE svg PUBLIC "-//W3C//DTD SVG 20010904//EN"
 "http://www.w3.org/TR/2001/REC-SVG-20010904/DTD/svg10.dtd">
<svg version="1.0" xmlns="http://www.w3.org/2000/svg"
 width="130.000000pt" height="130.000000pt" viewBox="0 0 130.000000 130.000000"
 preserveAspectRatio="xMidYMid meet">
<metadata>
Created by potrace 1.11, written by Peter Selinger 2001-2013
</metadata>
<g transform="translate(0.000000,130.000000) scale(0.100000,-0.100000)"
fill="#000000" stroke="none">
<path d="M1032 1277 c-27 -29 -27 -30 1 -61 l24 -25 26 27 27 28 -28 27 -28
27 -22 -23z"/>
<path d="M924 1166 l-29 -25 28 -28 27 -28 26 27 27 26 -25 27 -25 27 -29 -26z"/>
<path d="M262 1163 c-51 -17 -95 -71 -112 -135 -22 -83 -23 -82 45 -88 l60 -5
0 -40 -1 -40 56 -5 c30 -3 74 -3 98 -1 l42 3 0 44 0 44 64 0 c35 0 70 2 78 5
12 5 14 35 9 200 l-1 30 -150 0 c-94 0 -165 -5 -188 -12z"/>
<path d="M679 1160 c-1 -8 -1 -61 -1 -117 l-1 -103 -38 0 -38 0 1 -67 1 -68
53 -52 c29 -29 55 -53 59 -53 3 0 16 10 29 23 l24 22 -44 45 c-35 37 -44 53
-45 85 -3 66 -4 65 61 65 33 0 60 3 61 8 4 31 3 215 -1 220 -3 4 -31 7 -62 7
-45 1 -58 -3 -59 -15z"/>
<path d="M1023 1085 c-2 -8 -3 -24 -1 -37 2 -18 10 -24 36 -26 36 -4 48 12 38
51 -4 17 -13 22 -36 23 -18 1 -34 -4 -37 -11z"/>
<path d="M1179 1095 c-1 0 -2 -13 -4 -30 -4 -41 9 -54 47 -46 27 6 32 11 34
39 1 19 -2 33 -9 33 -15 2 -67 5 -68 4z"/>
<path d="M923 1004 c-13 -14 -23 -27 -23 -29 0 -3 12 -15 26 -29 l27 -24 24
29 25 29 -24 25 c-12 14 -25 25 -28 25 -3 0 -15 -12 -27 -26z"/>
<path d="M1030 895 l-24 -26 27 -27 27 -27 26 27 27 26 -26 26 c-14 14 -28 26
-30 26 -2 0 -14 -11 -27 -25z"/>
<path d="M259 768 c-1 -2 -3 -24 -5 -50 -3 -48 -24 -100 -50 -126 -8 -7 -46
-32 -86 -55 l-73 -42 0 -245 1 -245 304 0 305 0 0 245 0 245 -65 38 c-81 48
-97 63 -120 107 -21 40 -20 38 -20 90 l0 40 -95 0 c-52 0 -95 -1 -96 -2z m271
-491 l0 -153 -172 2 c-95 1 -175 2 -178 3 -3 0 -5 69 -5 151 l-1 150 178 0
178 0 0 -153z"/>
<path d="M261 352 c-7 -2 -11 -35 -11 -78 l0 -75 103 3 102 3 -2 65 c0 36 -1
70 -2 75 -1 10 -165 15 -190 7z"/>
</g>
</svg>
